<svg xmlns="http://www.w3.org/2000/svg"
  width="16"
  height="16"
  fill="currentColor"
  viewBox="0 0 16 16"
>
  <path
    d="M8.159 7.945v2.507h3.605c-.172.914-.678 1.689-1.472 2.218v.002l2.373 1.844c1.385-1.276 2.182-3.148 2.182-5.436 0-.566-.049-1.115-.139-1.646H8.159z"
    fill="#4285F4"
  />
  <path
    d="M3.57 9.58c-.156-.456-.24-.941-.24-1.442s.084-.986.24-1.442L1.052 4.217A7.915 7.915 0 0 0 0 8.138c0 1.426.37 2.771 1.052 3.921l2.518-2.478z"
    fill="#FBBC05"
  />
  <path
    d="M8.159 3.158c1.04 0 1.97.359 2.704 1.059l2.004-2.004C11.951.877 10.228 0 8.159 0 5.063 0 2.401 1.791 1.052 4.217l2.518 2.478c.678-2.022 2.633-3.537 4.589-3.537z"
    fill="#EA4335"
  />
  <path
    d="M3.57 6.696c-.254.756-.254 1.54 0 2.306l-2.518 2.478c1.349 2.426 4.011 4.217 7.107 4.217 2.069 0 3.792-.877 4.708-1.957l-2.373-1.844c-.675.456-1.549.759-2.335.759-1.956 0-3.911-1.515-4.589-3.537z"
    fill="#34A853"
  />
</svg>
